<svg xmlns="http://www.w3.org/2000/svg" version="1.1" xmlns:xlink="http://www.w3.org/1999/xlink" xmlns:svgjs="http://svgjs.com/svgjs" width="1440" height="560" preserveAspectRatio="none" viewBox="0 0 1440 560"><g mask="url(&quot;#SvgjsMask1051&quot;)" fill="none"><rect width="1440" height="560" x="0" y="0" fill="#0e2a47"></rect><path d="M 0,245 C 48,223.4 144,156.8 240,137 C 336,117.2 384,163.6 480,146 C 576,128.4 624,39.4 720,49 C 816,58.6 864,183.2 960,194 C 1056,204.8 1104,90 1200,103 C 1296,116 1392,227.8 1440,259L1440 560L0 560z" fill="#184a7e"></path><path d="M 0,444 C 96,415 288,297.4 480,299 C 672,300.6 768,429.8 960,452 C 1152,474.2 1344,418.4 1440,410L1440 560L0 560z" fill="#2264ab"></path></g><defs><mask id="SvgjsMask1051"><rect width="1440" height="560" fill="#ffffff"></rect></mask></defs></svg>